<svg width="3524" height="1229" xmlns="http://www.w3.org/2000/svg" xmlns:xlink="http://www.w3.org/1999/xlink" xml:space="preserve" overflow="hidden"><g transform="translate(-440 -430)"><g><path d="M447.5 788.003C447.5 734.154 491.153 690.5 545.003 690.5L3863 690.5C3916.85 690.5 3960.5 734.154 3960.5 788.003L3960.5 1178C3960.5 1231.85 3916.85 1275.5 3863 1275.5L545.003 1275.5C491.153 1275.5 447.5 1231.85 447.5 1178Z" stroke="#FFC000" stroke-width="6.875" stroke-linecap="butt" stroke-linejoin="miter" stroke-miterlimit="8" stroke-opacity="1" fill="#FFF2CE" fill-rule="evenodd" fill-opacity="1"/><path d="M602.5 823.668C602.5 802.036 620.036 784.5 641.668 784.5L980.332 784.5C1001.96 784.5 1019.5 802.036 1019.5 823.668L1019.5 980.332C1019.5 1001.96 1001.96 1019.5 980.332 1019.5L641.668 1019.5C620.036 1019.5 602.5 1001.96 602.5 980.332Z" stroke="#042433" stroke-width="6.875" stroke-linecap="butt" stroke-linejoin="miter" stroke-miterlimit="8" stroke-opacity="1" fill="#FFFFFF" fill-rule="evenodd" fill-opacity="1"/><path d="M1154.5 823.667C1154.5 802.036 1172.04 784.5 1193.67 784.5L1531.33 784.5C1552.96 784.5 1570.5 802.036 1570.5 823.667L1570.5 980.333C1570.5 1001.96 1552.96 1019.5 1531.33 1019.5L1193.67 1019.5C1172.04 1019.5 1154.5 1001.96 1154.5 980.333Z" stroke="#042433" stroke-width="6.875" stroke-linecap="butt" stroke-linejoin="miter" stroke-miterlimit="8" stroke-opacity="1" fill="#FFFFFF" fill-rule="evenodd" fill-opacity="1"/><path d="M1698.5 823.667C1698.5 802.036 1716.04 784.5 1737.67 784.5L2075.33 784.5C2096.96 784.5 2114.5 802.036 2114.5 823.667L2114.5 980.333C2114.5 1001.96 2096.96 1019.5 2075.33 1019.5L1737.67 1019.5C1716.04 1019.5 1698.5 1001.96 1698.5 980.333Z" stroke="#042433" stroke-width="6.875" stroke-linecap="butt" stroke-linejoin="miter" stroke-miterlimit="8" stroke-opacity="1" fill="#FFFFFF" fill-rule="evenodd" fill-opacity="1"/><path d="M2249.5 823.668C2249.5 802.036 2267.04 784.5 2288.67 784.5L2627.33 784.5C2648.96 784.5 2666.5 802.036 2666.5 823.668L2666.5 980.332C2666.5 1001.96 2648.96 1019.5 2627.33 1019.5L2288.67 1019.5C2267.04 1019.5 2249.5 1001.96 2249.5 980.332Z" stroke="#042433" stroke-width="6.875" stroke-linecap="butt" stroke-linejoin="miter" stroke-miterlimit="8" stroke-opacity="1" fill="#FFFFFF" fill-rule="evenodd" fill-opacity="1"/><path d="M2839.5 823.668C2839.5 802.036 2857.04 784.5 2878.67 784.5L3217.33 784.5C3238.96 784.5 3256.5 802.036 3256.5 823.668L3256.5 980.332C3256.5 1001.96 3238.96 1019.5 3217.33 1019.5L2878.67 1019.5C2857.04 1019.5 2839.5 1001.96 2839.5 980.332Z" stroke="#042433" stroke-width="6.875" stroke-linecap="butt" stroke-linejoin="miter" stroke-miterlimit="8" stroke-opacity="1" fill="#FFFFFF" fill-rule="evenodd" fill-opacity="1"/><path d="M3391.5 823.667C3391.5 802.036 3409.04 784.5 3430.67 784.5L3768.33 784.5C3789.96 784.5 3807.5 802.036 3807.5 823.667L3807.5 980.333C3807.5 1001.96 3789.96 1019.5 3768.33 1019.5L3430.67 1019.5C3409.04 1019.5 3391.5 1001.96 3391.5 980.333Z" stroke="#042433" stroke-width="6.875" stroke-linecap="butt" stroke-linejoin="miter" stroke-miterlimit="8" stroke-opacity="1" fill="#FFFFFF" fill-rule="evenodd" fill-opacity="1"/><text fill="#000000" fill-opacity="1" font-family="Courier New,Courier New_MSFontService,sans-serif" font-style="normal" font-variant="normal" font-weight="400" font-stretch="normal" font-size="83" text-anchor="start" direction="ltr" writing-mode="lr-tb" unicode-bidi="normal" text-decoration="none" transform="matrix(1 0 0 1 690.188 930)">‘one’</text><text fill="#000000" fill-opacity="1" font-family="Courier New,Courier New_MSFontService,sans-serif" font-style="normal" font-variant="normal" font-weight="400" font-stretch="normal" font-size="83" text-anchor="start" direction="ltr" writing-mode="lr-tb" unicode-bidi="normal" text-decoration="none" transform="matrix(1 0 0 1 1239.82 924)">‘two’</text><text fill="#000000" fill-opacity="1" font-family="Courier New,Courier New_MSFontService,sans-serif" font-style="normal" font-variant="normal" font-weight="400" font-stretch="normal" font-size="83" text-anchor="start" direction="ltr" writing-mode="lr-tb" unicode-bidi="normal" text-decoration="none" transform="matrix(1 0 0 1 1733.62 930)">‘three’</text><text fill="#000000" fill-opacity="1" font-family="Courier New,Courier New_MSFontService,sans-serif" font-style="normal" font-variant="normal" font-weight="400" font-stretch="normal" font-size="83" text-anchor="start" direction="ltr" writing-mode="lr-tb" unicode-bidi="normal" text-decoration="none" transform="matrix(1 0 0 1 2301.33 924)">‘four’</text><text fill="#000000" fill-opacity="1" font-family="Courier New,Courier New_MSFontService,sans-serif" font-style="normal" font-variant="normal" font-weight="400" font-stretch="normal" font-size="83" text-anchor="start" direction="ltr" writing-mode="lr-tb" unicode-bidi="normal" text-decoration="none" transform="matrix(1 0 0 1 2902.49 926)">‘five’</text><text fill="#000000" fill-opacity="1" font-family="Courier New,Courier New_MSFontService,sans-serif" font-style="normal" font-variant="normal" font-weight="400" font-stretch="normal" font-size="83" text-anchor="start" direction="ltr" writing-mode="lr-tb" unicode-bidi="normal" text-decoration="none" transform="matrix(1 0 0 1 3479.22 924)">‘six’</text><path d="M813.5 594.5 3602.53 594.5" stroke="#156082" stroke-width="6.875" stroke-linecap="butt" stroke-linejoin="miter" stroke-miterlimit="8" stroke-opacity="1" fill="none" fill-rule="evenodd"/><path d="M816.938 594.5 816.938 819.083 810.063 819.083 810.063 594.5ZM827.25 814.5 813.501 842 799.75 814.5Z" fill="#156082" fill-rule="nonzero" fill-opacity="1"/><path d="M1379.94 591.5 1379.94 816.084 1373.06 816.084 1373.06 591.5ZM1390.25 811.5 1376.5 839 1362.75 811.5Z" fill="#156082" fill-rule="nonzero" fill-opacity="1"/><path d="M1909.94 591.5 1909.94 816.084 1903.06 816.084 1903.06 591.5ZM1920.25 811.5 1906.5 839 1892.75 811.5Z" fill="#156082" fill-rule="nonzero" fill-opacity="1"/><path d="M2453.94 595.5 2453.94 820.083 2447.06 820.083 2447.06 595.5ZM2464.25 815.5 2450.5 843 2436.75 815.5Z" fill="#156082" fill-rule="nonzero" fill-opacity="1"/><path d="M3044.94 591.5 3044.94 816.084 3038.06 816.084 3038.06 591.5ZM3055.25 811.5 3041.5 839 3027.75 811.5Z" fill="#156082" fill-rule="nonzero" fill-opacity="1"/><path d="M3602.94 591.5 3602.94 816.084 3596.06 816.084 3596.06 591.5ZM3613.25 811.5 3599.5 839 3585.75 811.5Z" fill="#156082" fill-rule="nonzero" fill-opacity="1"/><text fill="#156082" fill-opacity="1" font-family="Courier New,Courier New_MSFontService,sans-serif" font-style="normal" font-variant="normal" font-weight="700" font-stretch="normal" font-size="83" text-anchor="start" direction="ltr" writing-mode="lr-tb" unicode-bidi="normal" text-decoration="none" transform="matrix(1 0 0 1 2052.19 532)">values</text><text fill="#4EA72E" fill-opacity="1" font-family="Courier New,Courier New_MSFontService,sans-serif" font-style="normal" font-variant="normal" font-weight="700" font-stretch="normal" font-size="83" text-anchor="start" direction="ltr" writing-mode="lr-tb" unicode-bidi="normal" text-decoration="none" transform="matrix(1 0 0 1 777.518 1158)">0</text><text fill="#4EA72E" fill-opacity="1" font-family="Courier New,Courier New_MSFontService,sans-serif" font-style="normal" font-variant="normal" font-weight="700" font-stretch="normal" font-size="83" text-anchor="start" direction="ltr" writing-mode="lr-tb" unicode-bidi="normal" text-decoration="none" transform="matrix(1 0 0 1 1334.6 1159)">1</text><text fill="#4EA72E" fill-opacity="1" font-family="Courier New,Courier New_MSFontService,sans-serif" font-style="normal" font-variant="normal" font-weight="700" font-stretch="normal" font-size="83" text-anchor="start" direction="ltr" writing-mode="lr-tb" unicode-bidi="normal" text-decoration="none" transform="matrix(1 0 0 1 1878.63 1158)">2</text><text fill="#4EA72E" fill-opacity="1" font-family="Courier New,Courier New_MSFontService,sans-serif" font-style="normal" font-variant="normal" font-weight="700" font-stretch="normal" font-size="83" text-anchor="start" direction="ltr" writing-mode="lr-tb" unicode-bidi="normal" text-decoration="none" transform="matrix(1 0 0 1 2435.72 1158)">3</text><text fill="#4EA72E" fill-opacity="1" font-family="Courier New,Courier New_MSFontService,sans-serif" font-style="normal" font-variant="normal" font-weight="700" font-stretch="normal" font-size="83" text-anchor="start" direction="ltr" writing-mode="lr-tb" unicode-bidi="normal" text-decoration="none" transform="matrix(1 0 0 1 3016.12 1158)">4</text><text fill="#4EA72E" fill-opacity="1" font-family="Courier New,Courier New_MSFontService,sans-serif" font-style="normal" font-variant="normal" font-weight="700" font-stretch="normal" font-size="83" text-anchor="start" direction="ltr" writing-mode="lr-tb" unicode-bidi="normal" text-decoration="none" transform="matrix(1 0 0 1 3570.25 1147)">5</text><path d="M3591.53 1451.5 802.5 1451.5" stroke="#196B24" stroke-width="6.875" stroke-linecap="butt" stroke-linejoin="miter" stroke-miterlimit="8" stroke-opacity="1" fill="none" fill-rule="evenodd"/><path d="M3588.06 1451 3588.06 1226.42 3594.94 1226.42 3594.94 1451ZM3577.75 1231 3591.5 1203.5 3605.25 1231Z" fill="#196B24" fill-rule="nonzero" fill-opacity="1"/><path d="M3042.06 1454 3042.06 1229.42 3048.94 1229.42 3048.94 1454ZM3031.75 1234 3045.5 1206.5 3059.25 1234Z" fill="#196B24" fill-rule="nonzero" fill-opacity="1"/><path d="M2454.06 1454 2454.06 1229.42 2460.94 1229.42 2460.94 1454ZM2443.75 1234 2457.5 1206.5 2471.25 1234Z" fill="#196B24" fill-rule="nonzero" fill-opacity="1"/><path d="M1897.06 1450 1897.06 1225.42 1903.94 1225.42 1903.94 1450ZM1886.75 1230 1900.5 1202.5 1914.25 1230Z" fill="#196B24" fill-rule="nonzero" fill-opacity="1"/><path d="M1352.06 1454 1352.06 1229.42 1358.94 1229.42 1358.94 1454ZM1341.75 1234 1355.5 1206.5 1369.25 1234Z" fill="#196B24" fill-rule="nonzero" fill-opacity="1"/><path d="M803.062 1454 803.062 1229.42 809.937 1229.42 809.937 1454ZM792.75 1234 806.5 1206.5 820.25 1234Z" fill="#196B24" fill-rule="nonzero" fill-opacity="1"/><text fill="#4EA72E" fill-opacity="1" font-family="Courier New,Courier New_MSFontService,sans-serif" font-style="normal" font-variant="normal" font-weight="700" font-stretch="normal" font-size="83" text-anchor="start" direction="ltr" writing-mode="lr-tb" unicode-bidi="normal" text-decoration="none" transform="matrix(1 0 0 1 2027.55 1583)">indexes</text></g></g></svg>